<mxfile host="Electron" modified="2024-01-06T12:06:15.065Z" agent="Mozilla/5.0 (Windows NT 10.0; Win64; x64) AppleWebKit/537.36 (KHTML, like Gecko) draw.io/22.1.16 Chrome/120.0.6099.109 Electron/28.1.0 Safari/537.36" etag="o9GL2eD2yeQWmObM8EZc" version="22.1.16" type="device">
  <diagram id="C5RBs43oDa-KdzZeNtuy" name="Page-1">
    <mxGraphModel dx="1103" dy="882" grid="1" gridSize="10" guides="1" tooltips="1" connect="1" arrows="1" fold="1" page="1" pageScale="1" pageWidth="827" pageHeight="1169" math="0" shadow="0">
      <root>
        <mxCell id="WIyWlLk6GJQsqaUBKTNV-0" />
        <mxCell id="WIyWlLk6GJQsqaUBKTNV-1" parent="WIyWlLk6GJQsqaUBKTNV-0" />
        <mxCell id="p4FCoDMu30H1FZxy0P49-1" style="edgeStyle=orthogonalEdgeStyle;rounded=0;orthogonalLoop=1;jettySize=auto;html=1;entryX=0.5;entryY=0;entryDx=0;entryDy=0;" edge="1" parent="WIyWlLk6GJQsqaUBKTNV-1" source="WIyWlLk6GJQsqaUBKTNV-3" target="p4FCoDMu30H1FZxy0P49-0">
          <mxGeometry relative="1" as="geometry" />
        </mxCell>
        <mxCell id="WIyWlLk6GJQsqaUBKTNV-3" value="months" style="rounded=1;whiteSpace=wrap;html=1;fontSize=12;glass=0;strokeWidth=1;shadow=0;" parent="WIyWlLk6GJQsqaUBKTNV-1" vertex="1">
          <mxGeometry x="280" y="80" width="120" height="40" as="geometry" />
        </mxCell>
        <mxCell id="TPCbGr6PHEfDsc5derhR-0" style="edgeStyle=orthogonalEdgeStyle;rounded=0;orthogonalLoop=1;jettySize=auto;html=1;entryX=0;entryY=0.5;entryDx=0;entryDy=0;" parent="WIyWlLk6GJQsqaUBKTNV-1" source="WIyWlLk6GJQsqaUBKTNV-6" target="WIyWlLk6GJQsqaUBKTNV-7" edge="1">
          <mxGeometry relative="1" as="geometry" />
        </mxCell>
        <mxCell id="TPCbGr6PHEfDsc5derhR-1" value="False" style="edgeLabel;html=1;align=center;verticalAlign=middle;resizable=0;points=[];" parent="TPCbGr6PHEfDsc5derhR-0" vertex="1" connectable="0">
          <mxGeometry x="-0.2758" y="1" relative="1" as="geometry">
            <mxPoint as="offset" />
          </mxGeometry>
        </mxCell>
        <mxCell id="TPCbGr6PHEfDsc5derhR-2" style="edgeStyle=orthogonalEdgeStyle;rounded=0;orthogonalLoop=1;jettySize=auto;html=1;entryX=0.5;entryY=0;entryDx=0;entryDy=0;" parent="WIyWlLk6GJQsqaUBKTNV-1" source="WIyWlLk6GJQsqaUBKTNV-6" edge="1">
          <mxGeometry relative="1" as="geometry">
            <mxPoint x="300" y="900" as="targetPoint" />
          </mxGeometry>
        </mxCell>
        <mxCell id="TPCbGr6PHEfDsc5derhR-3" value="True" style="edgeLabel;html=1;align=center;verticalAlign=middle;resizable=0;points=[];" parent="TPCbGr6PHEfDsc5derhR-2" vertex="1" connectable="0">
          <mxGeometry x="-0.3521" y="-1" relative="1" as="geometry">
            <mxPoint as="offset" />
          </mxGeometry>
        </mxCell>
        <mxCell id="WIyWlLk6GJQsqaUBKTNV-6" value="" style="rhombus;whiteSpace=wrap;html=1;shadow=0;fontFamily=Helvetica;fontSize=12;align=center;strokeWidth=1;spacing=6;spacingTop=-4;" parent="WIyWlLk6GJQsqaUBKTNV-1" vertex="1">
          <mxGeometry x="250" y="760" width="100" height="80" as="geometry" />
        </mxCell>
        <mxCell id="WIyWlLk6GJQsqaUBKTNV-7" value="Пополните баллы" style="rounded=1;whiteSpace=wrap;html=1;fontSize=12;glass=0;strokeWidth=1;shadow=0;" parent="WIyWlLk6GJQsqaUBKTNV-1" vertex="1">
          <mxGeometry x="400" y="780" width="120" height="40" as="geometry" />
        </mxCell>
        <mxCell id="TPCbGr6PHEfDsc5derhR-5" style="edgeStyle=orthogonalEdgeStyle;rounded=0;orthogonalLoop=1;jettySize=auto;html=1;" parent="WIyWlLk6GJQsqaUBKTNV-1" source="TPCbGr6PHEfDsc5derhR-4" edge="1">
          <mxGeometry relative="1" as="geometry">
            <mxPoint x="300" y="990" as="targetPoint" />
          </mxGeometry>
        </mxCell>
        <mxCell id="TPCbGr6PHEfDsc5derhR-4" value="Ввести значение ставки(bindOne)" style="rounded=1;whiteSpace=wrap;html=1;fontSize=12;glass=0;strokeWidth=1;shadow=0;" parent="WIyWlLk6GJQsqaUBKTNV-1" vertex="1">
          <mxGeometry x="240" y="900" width="120" height="40" as="geometry" />
        </mxCell>
        <mxCell id="TPCbGr6PHEfDsc5derhR-6" value="Replace Bulb" style="rounded=1;whiteSpace=wrap;html=1;fontSize=12;glass=0;strokeWidth=1;shadow=0;" parent="WIyWlLk6GJQsqaUBKTNV-1" vertex="1">
          <mxGeometry x="240" y="990" width="120" height="40" as="geometry" />
        </mxCell>
        <mxCell id="p4FCoDMu30H1FZxy0P49-5" style="edgeStyle=orthogonalEdgeStyle;rounded=0;orthogonalLoop=1;jettySize=auto;html=1;entryX=0.5;entryY=0;entryDx=0;entryDy=0;" edge="1" parent="WIyWlLk6GJQsqaUBKTNV-1" source="p4FCoDMu30H1FZxy0P49-0" target="p4FCoDMu30H1FZxy0P49-4">
          <mxGeometry relative="1" as="geometry" />
        </mxCell>
        <mxCell id="p4FCoDMu30H1FZxy0P49-0" value="for i in months" style="shape=hexagon;perimeter=hexagonPerimeter2;whiteSpace=wrap;html=1;fixedSize=1;" vertex="1" parent="WIyWlLk6GJQsqaUBKTNV-1">
          <mxGeometry x="280" y="180" width="120" height="80" as="geometry" />
        </mxCell>
        <mxCell id="p4FCoDMu30H1FZxy0P49-3" style="edgeStyle=orthogonalEdgeStyle;rounded=0;orthogonalLoop=1;jettySize=auto;html=1;entryX=0.5;entryY=0;entryDx=0;entryDy=0;" edge="1" parent="WIyWlLk6GJQsqaUBKTNV-1" source="p4FCoDMu30H1FZxy0P49-2" target="WIyWlLk6GJQsqaUBKTNV-3">
          <mxGeometry relative="1" as="geometry" />
        </mxCell>
        <mxCell id="p4FCoDMu30H1FZxy0P49-2" value="num = 1" style="rounded=1;whiteSpace=wrap;html=1;" vertex="1" parent="WIyWlLk6GJQsqaUBKTNV-1">
          <mxGeometry x="280" y="10" width="120" height="30" as="geometry" />
        </mxCell>
        <mxCell id="p4FCoDMu30H1FZxy0P49-8" style="edgeStyle=orthogonalEdgeStyle;rounded=0;orthogonalLoop=1;jettySize=auto;html=1;entryX=0.5;entryY=0;entryDx=0;entryDy=0;" edge="1" parent="WIyWlLk6GJQsqaUBKTNV-1" source="p4FCoDMu30H1FZxy0P49-4" target="p4FCoDMu30H1FZxy0P49-7">
          <mxGeometry relative="1" as="geometry" />
        </mxCell>
        <mxCell id="p4FCoDMu30H1FZxy0P49-4" value="print (I , num)" style="rounded=1;whiteSpace=wrap;html=1;" vertex="1" parent="WIyWlLk6GJQsqaUBKTNV-1">
          <mxGeometry x="280" y="300" width="120" height="60" as="geometry" />
        </mxCell>
        <mxCell id="p4FCoDMu30H1FZxy0P49-6" value="print (num)" style="rounded=1;whiteSpace=wrap;html=1;" vertex="1" parent="WIyWlLk6GJQsqaUBKTNV-1">
          <mxGeometry x="50" y="40" width="120" height="60" as="geometry" />
        </mxCell>
        <mxCell id="p4FCoDMu30H1FZxy0P49-11" style="edgeStyle=orthogonalEdgeStyle;rounded=0;orthogonalLoop=1;jettySize=auto;html=1;entryX=0.5;entryY=0;entryDx=0;entryDy=0;" edge="1" parent="WIyWlLk6GJQsqaUBKTNV-1" source="p4FCoDMu30H1FZxy0P49-7" target="p4FCoDMu30H1FZxy0P49-10">
          <mxGeometry relative="1" as="geometry" />
        </mxCell>
        <mxCell id="p4FCoDMu30H1FZxy0P49-7" value="i = i + 1" style="rounded=1;whiteSpace=wrap;html=1;" vertex="1" parent="WIyWlLk6GJQsqaUBKTNV-1">
          <mxGeometry x="280" y="400" width="120" height="60" as="geometry" />
        </mxCell>
        <mxCell id="p4FCoDMu30H1FZxy0P49-12" style="edgeStyle=orthogonalEdgeStyle;rounded=0;orthogonalLoop=1;jettySize=auto;html=1;entryX=1;entryY=0.5;entryDx=0;entryDy=0;" edge="1" parent="WIyWlLk6GJQsqaUBKTNV-1" source="p4FCoDMu30H1FZxy0P49-10" target="p4FCoDMu30H1FZxy0P49-0">
          <mxGeometry relative="1" as="geometry">
            <Array as="points">
              <mxPoint x="480" y="530" />
              <mxPoint x="480" y="220" />
            </Array>
          </mxGeometry>
        </mxCell>
        <mxCell id="p4FCoDMu30H1FZxy0P49-10" value="num = num + 1" style="rounded=1;whiteSpace=wrap;html=1;" vertex="1" parent="WIyWlLk6GJQsqaUBKTNV-1">
          <mxGeometry x="280" y="500" width="120" height="60" as="geometry" />
        </mxCell>
      </root>
    </mxGraphModel>
  </diagram>
</mxfile>
